#Comment line ignore any data following # character 
#Hierarchical Translation and Rotation (.htr) file 
[Header]	
#Header keywords are followed by a single value 
FileType HTR		#Single word string
DataType HTRS		#Translation followed by rotation and scale data
FileVersion 1		#integer
NumSegments 64		#integer
NumFrames 3		#integer
DataFrameRate 30		#integer, data frame rate in this file
EulerRotationOrder ZYX
CalibrationUnits mm
RotationUnits Degrees
GlobalAxisofGravity Y
BoneLengthAxis Y
ScaleFactor 1.00
[SegmentNames&Hierarchy]
#CHILD	PARENT
Pinger_Root GLOBAL
Pelvis Pinger_Root
L_Hip Pelvis
R_Hip Pelvis
Rear_Leg01 Pelvis
Spine1 Pelvis
L_Leg01 L_Hip
L_Leg02 L_Leg01
L_Leg03 L_Leg02
L_Foot L_Leg03
L_Toe1_01 L_Foot
L_Toe2_01 L_Foot
L_Toe3_01 L_Foot
planeAlignerLeft L_Foot
L_Toe1_02 L_Toe1_01
L_Toe1_03 L_Toe1_02
L_Toe2_02 L_Toe2_01
L_Toe2_03 L_Toe2_02
L_Toe3_02 L_Toe3_01
L_Toe3_03 L_Toe3_02
planeLockWeightLeft planeAlignerLeft
R_Leg01 R_Hip
R_Leg02 R_Leg01
R_Leg03 R_Leg02
R_Foot R_Leg03
planeAlignerRight R_Foot
R_Toe1_01 R_Foot
R_Toe2_01 R_Foot
R_Toe3_01 R_Foot
planeLockWeightRight planeAlignerRight
R_Toe1_02 R_Toe1_01
R_Toe1_03 R_Toe1_02
R_Toe2_02 R_Toe2_01
R_Toe2_03 R_Toe2_02
R_Toe3_02 R_Toe3_01
R_Toe3_03 R_Toe3_02
Rear_Leg02 Rear_Leg01
Rear_Leg03 Rear_Leg02
Rear_Leg04 Rear_Leg03
Rear_Foot Rear_Leg04
planeAlignerCenter Rear_Foot
Rear_Toe1_01 Rear_Foot
Rear_Toe2_01 Rear_Foot
Rear_Toe3_01 Rear_Foot
planeLockWeightCenter planeAlignerCenter
Rear_Toe1_02 Rear_Toe1_01
Rear_Toe1_03 Rear_Toe1_02
Rear_Toe2_02 Rear_Toe2_01
Rear_Toe2_03 Rear_Toe2_02
Rear_Toe3_02 Rear_Toe3_01
Rear_Toe3_03 Rear_Toe3_02
Back_Bone Spine1
Head Spine1
Motor_Bone Back_Bone
Ping_Mechanism Back_Bone
BN_LookIK Head
bottomMouth Head
L_Mouth01 Head
L_mouthFront Head
mouthGun Head
R_Mouth01 Head
R_mouthFront Head
TopMouth Head
weapon_bone Head
[BasePosition]
#SegmentName Tx, Ty, Tz, Rx, Ry, Rz, BoneLength
Pinger_Root 0.000000 0.000000 0.000000 -90.000000 0.000000 0.000000 10.000000 
Pelvis 0.000000 0.000000 0.000000 0.000000 0.000000 0.000000 10.000000 
L_Hip 0.000000 0.000000 0.000000 0.000000 0.000000 0.000000 10.000000 
R_Hip 0.000000 0.000000 0.000000 0.000000 0.000000 0.000000 10.000000 
Rear_Leg01 0.000000 0.000000 0.000000 0.000000 0.000000 0.000000 10.000000 
Spine1 0.000000 0.000000 0.000000 0.000000 0.000000 0.000000 10.000000 
L_Leg01 0.000000 0.000000 0.000000 0.000000 0.000000 0.000000 10.000000 
L_Leg02 0.000000 0.000000 0.000000 0.000000 0.000000 0.000000 10.000000 
L_Leg03 0.000000 0.000000 0.000000 0.000000 0.000000 0.000000 10.000000 
L_Foot 0.000000 0.000000 0.000000 0.000000 0.000000 0.000000 10.000000 
L_Toe1_01 0.000000 0.000000 0.000000 0.000000 0.000000 0.000000 10.000000 
L_Toe2_01 0.000000 0.000000 0.000000 0.000000 0.000000 0.000000 10.000000 
L_Toe3_01 0.000000 0.000000 0.000000 0.000000 0.000000 0.000000 10.000000 
planeAlignerLeft 0.000000 0.000000 0.000000 0.000000 0.000000 0.000000 10.000000 
L_Toe1_02 0.000000 0.000000 0.000000 0.000000 0.000000 0.000000 10.000000 
L_Toe1_03 0.000000 0.000000 0.000000 0.000000 0.000000 0.000000 10.000000 
L_Toe2_02 0.000000 0.000000 0.000000 0.000000 0.000000 0.000000 10.000000 
L_Toe2_03 0.000000 0.000000 0.000000 0.000000 0.000000 0.000000 10.000000 
L_Toe3_02 0.000000 0.000000 0.000000 0.000000 0.000000 0.000000 10.000000 
L_Toe3_03 0.000000 0.000000 0.000000 0.000000 0.000000 0.000000 10.000000 
planeLockWeightLeft 0.000000 0.000000 0.000000 0.000000 0.000000 0.000000 10.000000 
R_Leg01 0.000000 0.000000 0.000000 0.000000 0.000000 0.000000 10.000000 
R_Leg02 0.000000 0.000000 0.000000 0.000000 0.000000 0.000000 10.000000 
R_Leg03 0.000000 0.000000 0.000000 0.000000 0.000000 0.000000 10.000000 
R_Foot 0.000000 0.000000 0.000000 0.000000 0.000000 0.000000 10.000000 
planeAlignerRight 0.000000 0.000000 0.000000 0.000000 0.000000 0.000000 10.000000 
R_Toe1_01 0.000000 0.000000 0.000000 0.000000 0.000000 0.000000 10.000000 
R_Toe2_01 0.000000 0.000000 0.000000 0.000000 0.000000 0.000000 10.000000 
R_Toe3_01 0.000000 0.000000 0.000000 0.000000 0.000000 0.000000 10.000000 
planeLockWeightRight 0.000000 0.000000 0.000000 0.000000 0.000000 0.000000 10.000000 
R_Toe1_02 0.000000 0.000000 0.000000 0.000000 0.000000 0.000000 10.000000 
R_Toe1_03 0.000000 0.000000 0.000000 0.000000 0.000000 0.000000 10.000000 
R_Toe2_02 0.000000 0.000000 0.000000 0.000000 0.000000 0.000000 10.000000 
R_Toe2_03 0.000000 0.000000 0.000000 0.000000 0.000000 0.000000 10.000000 
R_Toe3_02 0.000000 0.000000 0.000000 0.000000 0.000000 0.000000 10.000000 
R_Toe3_03 0.000000 0.000000 0.000000 0.000000 0.000000 0.000000 10.000000 
Rear_Leg02 0.000000 0.000000 0.000000 0.000000 0.000000 0.000000 10.000000 
Rear_Leg03 0.000000 0.000000 0.000000 0.000000 0.000000 0.000000 10.000000 
Rear_Leg04 0.000000 0.000000 0.000000 0.000000 0.000000 0.000000 10.000000 
Rear_Foot 0.000000 0.000000 0.000000 0.000000 0.000000 0.000000 10.000000 
planeAlignerCenter 0.000000 0.000000 0.000000 0.000000 0.000000 0.000000 10.000000 
Rear_Toe1_01 0.000000 0.000000 0.000000 0.000000 0.000000 0.000000 10.000000 
Rear_Toe2_01 0.000000 0.000000 0.000000 0.000000 0.000000 0.000000 10.000000 
Rear_Toe3_01 0.000000 0.000000 0.000000 0.000000 0.000000 0.000000 10.000000 
planeLockWeightCenter 0.000000 0.000000 0.000000 0.000000 0.000000 0.000000 10.000000 
Rear_Toe1_02 0.000000 0.000000 0.000000 0.000000 0.000000 0.000000 10.000000 
Rear_Toe1_03 0.000000 0.000000 0.000000 0.000000 0.000000 0.000000 10.000000 
Rear_Toe2_02 0.000000 0.000000 0.000000 0.000000 0.000000 0.000000 10.000000 
Rear_Toe2_03 0.000000 0.000000 0.000000 0.000000 0.000000 0.000000 10.000000 
Rear_Toe3_02 0.000000 0.000000 0.000000 0.000000 0.000000 0.000000 10.000000 
Rear_Toe3_03 0.000000 0.000000 0.000000 0.000000 0.000000 0.000000 10.000000 
Back_Bone 0.000000 0.000000 0.000000 0.000000 0.000000 0.000000 10.000000 
Head 0.000000 0.000000 0.000000 0.000000 0.000000 0.000000 10.000000 
Motor_Bone 0.000000 0.000000 0.000000 0.000000 0.000000 0.000000 10.000000 
Ping_Mechanism 0.000000 0.000000 0.000000 0.000000 0.000000 0.000000 10.000000 
BN_LookIK 0.000000 0.000000 0.000000 0.000000 0.000000 0.000000 10.000000 
bottomMouth 0.000000 0.000000 0.000000 0.000000 0.000000 0.000000 10.000000 
L_Mouth01 0.000000 0.000000 0.000000 0.000000 0.000000 0.000000 10.000000 
L_mouthFront 0.000000 0.000000 0.000000 0.000000 0.000000 0.000000 10.000000 
mouthGun 0.000000 0.000000 0.000000 0.000000 0.000000 0.000000 10.000000 
R_Mouth01 0.000000 0.000000 0.000000 0.000000 0.000000 0.000000 10.000000 
R_mouthFront 0.000000 0.000000 0.000000 0.000000 0.000000 0.000000 10.000000 
TopMouth 0.000000 0.000000 0.000000 0.000000 0.000000 0.000000 10.000000 
weapon_bone 0.000000 0.000000 0.000000 0.000000 0.000000 0.000000 10.000000 
#Beginning of Data. Separated by tabs
#Fr	Tx	Ty	Tz	Rx	Ry	Rz	SF
[Pinger_Root]
21 2592.592285 0.000000 0.000000 -0.000075 -0.000000 -0.000020 2592.592285
22 2722.222168 0.000000 0.000000 -0.000075 -0.000000 -0.000020 2722.222168
23 2851.851563 0.000000 0.000000 -0.000075 -0.000000 -0.000020 2851.851318
[Pelvis]
21 309.685089 314.145508 4960.622070 39.273853 -73.416267 -73.419365 4980.196777
22 278.857300 279.635834 4964.562500 35.904175 -71.637482 -68.454178 4980.244629
23 260.756805 237.792252 4971.584961 34.990551 -70.811852 -65.943138 4984.094238
[L_Hip]
21 5.766392 125.831482 872.656799 -178.250168 -81.786369 87.376007 881.701050
22 5.766392 125.831482 872.656799 -178.250168 -81.786369 87.376007 881.701050
23 5.766392 125.831482 872.656799 -178.250168 -81.786369 87.376007 881.701050
[R_Hip]
21 5.765438 125.836372 -872.654907 -1.748770 81.786041 87.376961 881.699829
22 5.765438 125.836372 -872.654907 -1.748770 81.786041 87.376961 881.699829
23 5.765438 125.836372 -872.654907 -1.748770 81.786041 87.376961 881.699829
[Rear_Leg01]
21 -192.298416 -925.602966 -0.001907 -170.733215 2.903650 -164.032303 945.367432
22 -192.298416 -925.602966 -0.001907 -168.888641 2.360903 -161.020859 945.367432
23 -192.298416 -925.602966 -0.001907 -167.468933 0.737976 -160.038452 945.367432
[Spine1]
21 290.604584 5.007505 0.000477 15.858800 -21.965544 38.521122 290.647736
22 290.604584 5.007505 0.000477 12.751932 -22.889315 39.627441 290.647736
23 290.604584 5.007505 0.000477 10.312828 -22.813625 40.487110 290.647736
[L_Leg01]
21 761.932007 -0.002384 -0.069261 79.990814 -8.388707 -81.184349 761.932068
22 761.932007 -0.002384 -0.069261 80.666351 -8.064795 -82.539078 761.932068
23 761.932007 -0.002384 -0.069261 81.729385 -7.725776 -82.710693 761.932068
[L_Leg02]
21 1441.140503 -0.000954 -0.000715 -1.413263 0.707721 -82.988251 1441.140503
22 1441.140503 -0.000954 -0.000715 -1.388077 0.740724 -79.247116 1441.140503
23 1441.140503 -0.000954 -0.000715 -1.364998 0.767751 -76.097794 1441.140503
[L_Leg03]
21 1686.963989 -0.000715 -0.000954 0.077627 -0.011793 89.337044 1686.963989
22 1686.963989 -0.000715 -0.000954 0.086652 -0.011441 86.626686 1686.963989
23 1686.963989 -0.000715 -0.000954 0.097511 -0.012693 84.350418 1686.963989
[L_Foot]
21 3041.570068 -30.715107 11.297464 -21.789297 8.897532 57.854885 3041.746094
22 3041.570068 -30.715107 11.297464 -22.558996 7.913363 57.540493 3041.746094
23 3041.570068 -30.715107 11.297464 -23.722065 7.321050 57.111645 3041.746094
[L_Toe1_01]
21 -188.216690 -224.732346 -21.137953 88.916855 -1.635797 -149.307724 293.899567
22 -188.216690 -224.732346 -21.137953 88.874245 -1.611813 -148.123367 293.899567
23 -188.216690 -224.732346 -21.137953 88.832138 -1.586948 -146.939041 293.899567
[L_Toe2_01]
21 200.746536 -219.926590 148.838394 -75.243690 -11.140184 -56.477627 332.896027
22 200.746536 -219.926590 148.838394 -75.073860 -10.910225 -57.435143 332.896027
23 200.746536 -219.926590 148.838394 -74.908089 -10.677518 -58.391220 332.896027
[L_Toe3_01]
21 188.832520 -219.859131 -191.078659 -109.101234 13.704977 -58.418480 347.140900
22 188.832520 -219.859131 -191.078659 -109.303360 13.409027 -59.371838 347.140900
23 188.832520 -219.859131 -191.078659 -109.500122 13.109855 -60.322941 347.140900
[planeAlignerLeft]
21 -75.282585 -769.317383 0.001488 0.000000 -90.000000 -90.001900 772.992065
22 -76.660919 -782.141052 -0.002079 0.000000 -90.000000 -90.001900 785.888977
23 -78.039238 -794.964600 -0.005646 0.000000 -90.000000 -90.001900 798.785828
[L_Toe1_02]
21 413.761139 0.000477 0.000000 0.001385 -25.904909 0.001385 413.761139
22 413.761139 0.000477 0.000000 0.001385 -25.873014 0.001385 413.761139
23 413.761139 0.000477 0.000000 0.001385 -25.841122 0.001385 413.761139
[L_Toe1_03]
21 464.317322 0.000358 -0.000089 0.003785 53.859913 0.003785 464.317322
22 464.317322 0.000358 -0.000089 0.003546 51.347614 0.003546 464.317322
23 464.317322 0.000358 -0.000089 0.003366 49.189697 0.003366 464.317322
[L_Toe2_02]
21 342.235809 -0.000477 0.000238 0.001183 -75.945717 0.001183 342.235809
22 342.235809 -0.000477 0.000238 0.001183 -75.544601 0.001183 342.235809
23 342.235809 -0.000477 0.000238 0.001184 -75.143585 0.001184 342.235809
[L_Toe2_03]
21 420.210846 -0.000715 0.000000 -179.990585 84.098740 -179.987091 420.210846
22 420.210846 -0.000715 0.000000 -179.986557 85.665146 -179.983047 420.210846
23 420.210846 -0.000715 0.000000 -179.981018 86.822693 -179.977524 420.210846
[L_Toe3_02]
21 329.270111 0.000954 0.000000 0.001178 -79.683517 0.001178 329.270111
22 329.270111 0.000954 0.000000 0.001179 -79.312164 0.001179 329.270111
23 329.270111 0.000954 0.000000 0.001179 -78.940842 0.001179 329.270111
[L_Toe3_03]
21 439.137451 -0.001907 0.000954 -179.993744 81.777245 -179.990219 439.137451
22 439.137451 -0.001907 0.000954 -179.991959 83.267189 -179.988464 439.137451
23 439.137451 -0.001907 0.000954 -179.990097 84.348335 -179.986588 439.137451
[planeLockWeightLeft]
21 999.999023 0.098196 0.076209 -0.011826 -0.004376 0.005620 999.999023
22 999.998962 0.098208 0.076206 -0.011826 -0.004376 0.005620 999.999023
23 999.998962 0.098220 0.076202 -0.011826 -0.004376 0.005620 999.999023
[R_Leg01]
21 761.455627 -0.001907 -0.000358 87.007309 23.022224 54.634361 761.455688
22 761.455627 -0.001907 -0.000358 87.811935 28.713898 45.999084 761.455688
23 761.455627 -0.001907 -0.000358 90.012764 31.755367 39.745140 761.455688
[R_Leg02]
21 1441.140625 0.000000 -0.000238 -0.955791 -0.309397 -130.793030 1441.140625
22 1441.140625 0.000000 -0.000238 -0.966835 -0.309462 -120.492966 1441.140625
23 1441.140625 0.000000 -0.000238 -0.860746 -0.195996 -108.991417 1441.140625
[R_Leg03]
21 1686.963989 0.000954 0.001431 0.099169 -0.058443 137.061020 1686.963989
22 1686.963989 0.000954 0.001431 0.104643 -0.062825 138.793762 1686.963989
23 1686.963989 0.000954 0.001431 0.099299 -0.058222 136.805832 1686.963989
[R_Foot]
21 3041.560059 -30.531288 -11.204481 15.553268 -41.373077 88.243599 3041.734131
22 3041.560059 -30.531288 -11.204481 18.767881 -40.878403 82.010406 3041.734131
23 3041.560059 -30.531288 -11.204481 22.832722 -39.239700 73.928200 3041.734131
[planeAlignerRight]
21 -225.424896 -800.469727 13.002524 0.000000 -89.960434 -90.005180 831.707397
22 -227.744034 -799.317871 12.041119 0.000000 -89.960434 -90.005180 831.216858
23 -230.063156 -798.166138 11.079716 0.000000 -89.960434 -90.005180 830.735229
[R_Toe1_01]
21 -188.383347 -224.864899 21.052242 91.293060 0.977630 -145.243210 294.101532
22 -188.383347 -224.864899 21.052242 91.264816 1.053146 -145.420776 294.101532
23 -188.383347 -224.864899 21.052242 91.241318 1.164417 -145.362732 294.101532
[R_Toe2_01]
21 200.637817 -220.002121 -148.787384 -107.615784 7.267126 -82.732918 332.857574
22 200.637817 -220.002121 -148.787384 -107.599426 7.851408 -82.109917 332.857574
23 200.637817 -220.002121 -148.787384 -107.569603 8.489105 -81.084557 332.857574
[R_Toe3_01]
21 188.606735 -220.092957 191.126343 -67.222008 -9.827599 -84.188095 347.192566
22 188.606735 -220.092957 191.126343 -67.261017 -10.245438 -83.565369 347.192566
23 188.606735 -220.092957 191.126343 -67.336197 -10.696365 -82.544968 347.192566
[planeLockWeightRight]
21 -0.000610 -0.000610 0.076370 -0.011823 -0.004379 -0.000027 0.076375
22 103.999733 -0.000305 0.076599 -0.011823 -0.004379 -0.000027 103.999763
23 351.998535 -0.000610 0.076370 -0.011823 -0.004379 -0.000027 351.998535
[R_Toe1_02]
21 413.762085 0.000477 -0.000119 0.001401 -23.833115 0.001401 413.762085
22 413.762085 0.000477 -0.000119 0.001398 -24.235197 0.001398 413.762085
23 413.762085 0.000477 -0.000119 0.001394 -24.637259 0.001394 413.762085
[R_Toe1_03]
21 464.317810 0.000000 0.001088 0.008658 74.415215 0.008658 464.317810
22 464.317810 0.000000 0.001088 0.007575 72.173409 0.007575 464.317810
23 464.317810 0.000000 0.001088 0.006604 69.521332 0.006604 464.317810
[R_Toe2_02]
21 342.234741 -0.000954 0.000238 -0.002331 -80.445084 -0.002331 342.234741
22 342.234741 -0.000954 0.000238 -0.002331 -80.525993 -0.002331 342.234741
23 342.234741 -0.000954 0.000238 -0.002331 -80.606941 -0.002331 342.234741
[R_Toe2_03]
21 420.210846 0.000715 -0.000268 -179.996201 56.153728 -179.999863 420.210846
22 420.210846 0.000715 -0.000268 -179.996231 55.366169 -179.999893 420.210846
23 420.210846 0.000715 -0.000268 -179.996246 55.090061 -179.999924 420.210846
[R_Toe3_02]
21 329.270355 -0.000477 -0.000954 0.001175 -84.125336 0.001175 329.270355
22 329.270355 -0.000477 -0.000954 0.001175 -84.228912 0.001175 329.270355
23 329.270355 -0.000477 -0.000954 0.001175 -84.332474 0.001175 329.270355
[R_Toe3_03]
21 439.137939 0.000238 0.001431 -179.995834 55.448639 -179.988525 439.137939
22 439.137939 0.000238 0.001431 -179.996017 54.646881 -179.988678 439.137939
23 439.137939 0.000238 0.001431 -179.996094 54.313385 -179.988754 439.137939
[Rear_Leg02]
21 1162.777710 -0.029802 0.005960 -6.410528 4.015645 -140.065140 1162.777710
22 1162.777710 -0.029802 0.005960 -7.602684 4.826739 -135.292938 1162.777710
23 1162.777710 -0.029802 0.005960 -8.567920 5.623239 -132.866043 1162.777710
[Rear_Leg03]
21 607.192505 -0.013351 -0.073195 0.010020 -0.005979 78.008415 607.192505
22 607.192505 -0.013351 -0.073195 0.010024 -0.005973 77.934189 607.192505
23 607.192505 -0.013351 -0.073195 0.010028 -0.005966 77.859940 607.192505
[Rear_Leg04]
21 995.874512 -0.020504 -0.011921 -0.043674 -0.016041 93.821114 995.874573
22 995.874512 -0.020504 -0.011921 -0.043602 -0.016237 93.307663 995.874573
23 995.874512 -0.020504 -0.011921 -0.043528 -0.016432 92.794189 995.874573
[Rear_Foot]
21 3096.176270 -0.067472 -0.041425 140.222107 78.191666 -64.550285 3096.176270
22 3096.176270 -0.067472 -0.041425 140.507874 75.830605 -65.031372 3096.176270
23 3096.176270 -0.067472 -0.041425 141.489426 73.488403 -63.893204 3096.176270
[planeAlignerCenter]
21 0.612412 -39.136997 -760.756165 0.000009 0.000003 -179.999985 761.762451
22 0.610046 -21.022753 -785.888123 0.000009 0.000003 -179.999985 786.169495
23 0.604858 -1.712950 -807.337402 0.000009 0.000003 -179.999985 807.339417
[Rear_Toe1_01]
21 0.653352 83.966492 -371.173737 0.065774 22.276850 90.032272 380.553192
22 0.653352 83.966492 -371.173737 0.070023 24.470551 90.031250 380.553192
23 0.653352 83.966492 -371.173737 0.074312 26.664249 90.030396 380.553192
[Rear_Toe2_01]
21 178.200760 -294.826019 -362.060547 -0.479363 49.487587 -72.775909 499.765686
22 178.200760 -294.826019 -362.060547 -0.300328 51.030205 -72.381683 499.765686
23 178.200760 -294.826019 -362.060547 -0.097681 52.571384 -71.965942 499.765686
[Rear_Toe3_01]
21 -153.359680 -308.780914 -362.060852 0.394493 49.485966 -109.371582 499.952881
22 -153.359680 -308.780914 -362.060852 0.188083 51.025608 -109.813591 499.952881
23 -153.359680 -308.780914 -362.060852 -0.044930 52.563557 -110.279877 499.952881
[planeLockWeightCenter]
21 999.999817 0.000252 0.076265 -0.011814 -0.004373 -0.000015 999.999817
22 999.999817 0.000247 0.076278 -0.011814 -0.004373 -0.000015 999.999817
23 999.999817 0.000243 0.076291 -0.011814 -0.004373 -0.000015 999.999817
[Rear_Toe1_02]
21 379.707825 0.194073 0.000477 -0.000767 -33.624729 0.000838 379.707855
22 379.707825 0.194073 0.000477 -0.000767 -33.624729 0.000838 379.707855
23 379.707825 0.194073 0.000477 -0.000767 -33.624729 0.000838 379.707855
[Rear_Toe1_03]
21 500.129700 0.165701 0.000119 -0.035706 88.241302 -0.039203 500.129761
22 500.129700 0.165701 0.000119 0.005935 83.206612 0.004182 500.129761
23 500.129700 0.165701 0.000119 0.011390 78.171791 0.011390 500.129761
[Rear_Toe2_02]
21 340.494507 0.000238 -0.000954 0.001185 -74.028519 0.001185 340.494507
22 340.494507 0.000238 -0.000954 0.001184 -74.635742 0.001184 340.494507
23 340.494507 0.000238 -0.000954 0.001183 -75.243034 0.001183 340.494507
[Rear_Toe2_03]
21 433.103577 0.000000 0.000238 0.010108 76.665199 0.010108 433.103546
22 433.103577 0.000000 0.000238 0.010692 77.396545 0.010692 433.103546
23 433.103577 0.000000 0.000238 0.011739 78.523178 0.011739 433.103546
[Rear_Toe3_02]
21 340.494141 -0.000358 -0.000477 0.001185 -74.016121 0.001185 340.494171
22 340.494141 -0.000358 -0.000477 0.001184 -74.606033 0.001184 340.494171
23 340.494141 -0.000358 -0.000477 0.001184 -75.195930 0.001184 340.494171
[Rear_Toe3_03]
21 433.103577 0.001431 -0.000238 0.010094 76.646118 0.010094 433.103546
22 433.103577 0.001431 -0.000238 0.010644 77.339516 0.010644 433.103546
23 433.103577 0.001431 -0.000238 0.011648 78.433289 0.011648 433.103546
[Back_Bone]
21 1312.175781 -701.934692 0.000954 0.763396 -3.650662 -85.498573 1488.125488
22 1312.175781 -701.934692 0.000954 1.139223 -3.630697 -85.173935 1488.125488
23 1312.175781 -701.934692 0.000954 1.515148 -3.612855 -84.849152 1488.125488
[Head]
21 1406.159424 809.709290 0.001431 7.683137 -7.479370 4.053149 1622.625488
22 1406.159424 809.709290 0.001431 8.108077 -7.649290 3.932055 1622.625488
23 1406.159424 809.709290 0.001431 8.541820 -7.717633 3.599907 1622.625488
[Motor_Bone]
21 1158.364380 -417.834747 0.000477 -3.495549 0.584007 -105.401466 1231.419434
22 1158.364380 -417.834747 0.000477 0.251848 -0.541806 -106.527901 1231.419434
23 1158.364380 -417.834747 0.000477 2.270580 -1.149515 -107.133400 1231.419434
[Ping_Mechanism]
21 1161.261230 -382.926300 37.745953 0.000103 -0.000053 82.120995 1223.349854
22 1159.758911 -378.455200 48.419170 0.000103 -0.000053 82.120995 1220.906860
23 1160.774414 -375.676270 53.790264 0.000103 -0.000053 82.120995 1221.238525
[BN_LookIK]
21 193.241119 1380.371704 -0.002861 0.000000 89.965736 -31.038179 1393.832153
22 193.241119 1380.371704 -0.002861 0.000000 89.965736 -31.038179 1393.832153
23 193.241119 1380.371704 -0.002861 0.000000 89.965736 -31.038179 1393.832153
[bottomMouth]
21 -435.092926 615.759399 -0.000954 -0.000022 0.000016 73.527184 753.966492
22 -435.092926 615.759399 -0.000954 -0.000022 0.000016 73.527184 753.966492
23 -435.092926 615.759399 -0.000954 -0.000022 0.000016 73.527184 753.966492
[L_Mouth01]
21 554.440979 7.658243 838.222046 150.204178 23.759130 109.605339 1005.027161
22 554.440979 7.658243 838.222046 150.204178 23.759130 109.605339 1005.027161
23 554.440979 7.658243 838.222046 150.204178 23.759130 109.605339 1005.027161
[L_mouthFront]
21 551.629089 934.514771 339.150421 0.000081 2.804060 79.119301 1136.941284
22 551.629089 934.514771 339.150421 0.000081 2.804060 79.119301 1136.941284
23 551.629089 934.514771 339.150421 0.000081 2.804060 79.119301 1136.941284
[mouthGun]
21 55.332661 1627.420898 0.000000 0.000023 0.000009 -11.038128 1628.361328
22 55.332661 1627.420898 0.000000 0.000023 0.000009 -11.038128 1628.361328
23 55.332661 1627.420898 0.000000 0.000023 0.000009 -11.038128 1628.361328
[R_Mouth01]
21 554.442383 7.659197 -838.223938 29.795891 -23.759109 109.605331 1005.029541
22 554.442383 7.659197 -838.223938 29.795891 -23.759109 109.605331 1005.029541
23 554.442383 7.659197 -838.223938 29.795891 -23.759109 109.605331 1005.029541
[R_mouthFront]
21 551.629089 934.514282 -339.151367 0.000029 -2.803930 79.119133 1136.941162
22 551.629089 934.514282 -339.151367 0.000029 -2.803930 79.119133 1136.941162
23 551.629089 934.514282 -339.151367 0.000029 -2.803930 79.119133 1136.941162
[TopMouth]
21 461.269867 -56.106091 -0.008583 -0.000059 -0.000268 92.025169 464.669525
22 461.269867 -56.106091 -0.008583 -0.000059 -0.000268 92.025169 464.669525
23 461.269867 -56.106091 -0.008583 -0.000059 -0.000268 92.025169 464.669525
[weapon_bone]
21 -987.239868 1448.372803 0.001431 0.000000 89.965736 -31.038221 1752.833740
22 -987.239868 1448.372803 0.001431 0.000000 89.965736 -31.038221 1752.833740
23 -987.239868 1448.372803 0.001431 0.000000 89.965736 -31.038221 1752.833740
